<svg width="122" height="32" viewBox="0 0 122 32" fill="none" xmlns="http://www.w3.org/2000/svg">
<g filter="url(#filter0_d_992_2576)">
<path d="M6.9375 20V5.45455H13.2159C14.2955 5.45455 15.2401 5.66761 16.0497 6.09375C16.8594 6.51989 17.4891 7.11884 17.9389 7.89062C18.3887 8.66241 18.6136 9.56439 18.6136 10.5966C18.6136 11.6383 18.3816 12.5402 17.9176 13.3026C17.4583 14.0649 16.812 14.652 15.9787 15.0639C15.1501 15.4759 14.1818 15.6818 13.0739 15.6818H9.32386V12.6136H12.2784C12.7424 12.6136 13.1378 12.5331 13.4645 12.3722C13.7959 12.2064 14.0492 11.9721 14.2244 11.669C14.4044 11.366 14.4943 11.0085 14.4943 10.5966C14.4943 10.1799 14.4044 9.82481 14.2244 9.53125C14.0492 9.23295 13.7959 9.00568 13.4645 8.84943C13.1378 8.68845 12.7424 8.60795 12.2784 8.60795H10.8864V20H6.9375ZM23.0398 5.45455V20H19.1193V5.45455H23.0398ZM27.0771 20.1705C26.381 20.1705 25.7655 20.0568 25.2305 19.8295C24.7002 19.5975 24.2835 19.2472 23.9805 18.7784C23.6774 18.3097 23.5259 17.7131 23.5259 16.9886C23.5259 16.392 23.6277 15.883 23.8313 15.4616C24.0349 15.0355 24.319 14.6875 24.6836 14.4176C25.0482 14.1477 25.4719 13.9418 25.9549 13.7997C26.4426 13.6577 26.9682 13.5653 27.5316 13.5227C28.1424 13.4754 28.6325 13.4186 29.0018 13.3523C29.3758 13.2812 29.6457 13.1842 29.8114 13.0611C29.9772 12.9332 30.06 12.7652 30.06 12.5568V12.5284C30.06 12.2443 29.9511 12.0265 29.7333 11.875C29.5155 11.7235 29.2362 11.6477 28.8952 11.6477C28.5212 11.6477 28.2158 11.7306 27.979 11.8963C27.747 12.0573 27.6074 12.3059 27.56 12.642H23.9521C23.9994 11.9792 24.2101 11.3684 24.5842 10.8097C24.9629 10.2462 25.5146 9.7964 26.239 9.46023C26.9634 9.11932 27.8678 8.94886 28.9521 8.94886C29.7333 8.94886 30.4341 9.04119 31.0543 9.22585C31.6746 9.40578 32.2025 9.65909 32.6381 9.9858C33.0737 10.3078 33.4052 10.6866 33.6325 11.1222C33.8645 11.553 33.9805 12.0218 33.9805 12.5284V20H30.3157V18.4659H30.2305C30.0127 18.8731 29.7475 19.2022 29.435 19.4531C29.1272 19.7041 28.7745 19.8864 28.3768 20C27.9838 20.1136 27.5505 20.1705 27.0771 20.1705ZM28.3555 17.6989C28.6538 17.6989 28.9331 17.6373 29.1935 17.5142C29.4587 17.3911 29.6741 17.2135 29.8398 16.9815C30.0056 16.7495 30.0884 16.4678 30.0884 16.1364V15.2273C29.9843 15.2699 29.873 15.3101 29.7546 15.348C29.641 15.3859 29.5179 15.4214 29.3853 15.4545C29.2575 15.4877 29.1201 15.5185 28.9734 15.5469C28.8313 15.5753 28.6822 15.6013 28.5259 15.625C28.2229 15.6723 27.9743 15.7505 27.7802 15.8594C27.5908 15.9635 27.4487 16.0938 27.354 16.25C27.2641 16.4015 27.2191 16.572 27.2191 16.7614C27.2191 17.0644 27.3256 17.2964 27.5387 17.4574C27.7518 17.6184 28.024 17.6989 28.3555 17.6989ZM36.8494 24.0909C36.3996 24.0909 35.9711 24.0554 35.5639 23.9844C35.1567 23.9181 34.7992 23.8258 34.4915 23.7074L35.3438 20.9233C35.6657 21.0369 35.9593 21.1103 36.2244 21.1435C36.4943 21.1766 36.724 21.1577 36.9134 21.0866C37.1075 21.0156 37.2472 20.8807 37.3324 20.6818L37.4176 20.483L33.5824 9.09091H37.6733L39.4347 16.6477H39.5483L41.3381 9.09091H45.4574L41.4801 20.9091C41.2812 21.5104 40.9924 22.0502 40.6136 22.5284C40.2396 23.0114 39.7472 23.3925 39.1364 23.6719C38.5256 23.9512 37.7633 24.0909 36.8494 24.0909ZM50.2599 20.2273C49.2183 20.2273 48.321 20.0426 47.5682 19.6733C46.8153 19.304 46.2377 18.8092 45.8352 18.1889C45.4328 17.5687 45.2315 16.8845 45.2315 16.1364C45.2315 15.5919 45.3357 15.1113 45.544 14.6946C45.7524 14.2732 46.0436 13.8873 46.4176 13.5369C46.7917 13.1866 47.2296 12.8409 47.7315 12.5L51.027 10.4545C51.3584 10.2462 51.5833 10.0308 51.7017 9.80824C51.8201 9.58097 51.8793 9.37973 51.8793 9.20455C51.8793 8.97254 51.794 8.76657 51.6236 8.58665C51.4531 8.40672 51.188 8.31913 50.8281 8.32386C50.6056 8.32386 50.4138 8.36648 50.2528 8.4517C50.0919 8.5322 49.9664 8.64583 49.8764 8.79261C49.7912 8.93939 49.7486 9.11458 49.7486 9.31818C49.7486 9.59754 49.8291 9.884 49.9901 10.1776C50.151 10.4664 50.3712 10.7789 50.6506 11.1151C50.9299 11.4512 51.2448 11.8277 51.5952 12.2443L58.6406 20H54.7202L48.8111 13.75C48.5223 13.4422 48.2027 13.0658 47.8523 12.6207C47.5019 12.1709 47.1989 11.6643 46.9432 11.1009C46.6922 10.5374 46.5668 9.92424 46.5668 9.26136C46.5668 8.52273 46.7443 7.84801 47.0994 7.23722C47.4545 6.62642 47.9517 6.13873 48.5909 5.77415C49.2301 5.40956 49.9759 5.22727 50.8281 5.22727C51.6425 5.22727 52.3433 5.39536 52.9304 5.73153C53.5223 6.06771 53.9768 6.51515 54.294 7.07386C54.616 7.63258 54.777 8.24811 54.777 8.92045C54.777 9.59754 54.6089 10.2296 54.2727 10.8168C53.9413 11.4039 53.4654 11.9176 52.8452 12.358L49.8338 14.4886C49.6018 14.6496 49.4006 14.8343 49.2301 15.0426C49.0644 15.2509 48.9815 15.5208 48.9815 15.8523C48.9815 16.1269 49.0455 16.3613 49.1733 16.5554C49.3011 16.7495 49.4811 16.8987 49.7131 17.0028C49.9498 17.107 50.2268 17.1591 50.544 17.1591C51.027 17.1591 51.5099 17.0431 51.9929 16.8111C52.4806 16.5743 52.9257 16.2453 53.3281 15.8239C53.7306 15.3977 54.0526 14.8958 54.294 14.3182C54.5402 13.7358 54.6634 13.1013 54.6634 12.4148H57.7599C57.7599 13.2576 57.6723 14.0696 57.4972 14.8509C57.322 15.6321 57.0402 16.3471 56.652 16.9957C56.2637 17.6444 55.7524 18.1913 55.1179 18.6364C54.919 18.7358 54.7249 18.8305 54.5355 18.9205C54.3461 19.0104 54.152 19.1051 53.9531 19.2045C53.3707 19.5786 52.7623 19.8438 52.1278 20C51.4934 20.1515 50.8707 20.2273 50.2599 20.2273ZM58.4609 20V5.45455H62.4098V16.8182H68.2905V20H58.4609ZM74.1708 20.1989C73.006 20.1989 72.0022 19.9763 71.1594 19.5312C70.3214 19.0814 69.6751 18.4375 69.2205 17.5994C68.7707 16.7566 68.5458 15.7481 68.5458 14.5739C68.5458 13.447 68.7731 12.4621 69.2276 11.6193C69.6822 10.7765 70.3237 10.1207 71.1523 9.65199C71.9809 9.18324 72.9587 8.94886 74.0856 8.94886C74.9094 8.94886 75.6552 9.0767 76.3228 9.33239C76.9904 9.58807 77.561 9.95975 78.0344 10.4474C78.5079 10.9304 78.8725 11.5175 79.1282 12.2088C79.3839 12.9001 79.5117 13.679 79.5117 14.5455V15.4545H69.7674V13.2955H75.9038C75.899 12.983 75.8185 12.7083 75.6623 12.4716C75.5108 12.2301 75.3048 12.0431 75.0444 11.9105C74.7887 11.7732 74.4975 11.7045 74.1708 11.7045C73.8536 11.7045 73.5624 11.7732 73.2972 11.9105C73.0321 12.0431 72.819 12.2277 72.658 12.4645C72.5018 12.7012 72.4189 12.9782 72.4094 13.2955V15.625C72.4094 15.9754 72.4828 16.2879 72.6296 16.5625C72.7764 16.8371 72.9871 17.0526 73.2617 17.2088C73.5363 17.3651 73.8678 17.4432 74.256 17.4432C74.5259 17.4432 74.7721 17.4053 74.9947 17.3295C75.2219 17.2538 75.4161 17.1449 75.5771 17.0028C75.738 16.8561 75.8564 16.6809 75.9322 16.4773H79.5117C79.3886 17.2348 79.0974 17.893 78.6381 18.4517C78.1789 19.0057 77.5704 19.4366 76.8129 19.7443C76.06 20.0473 75.1793 20.1989 74.1708 20.1989ZM83.1513 20.1705C82.4553 20.1705 81.8397 20.0568 81.3047 19.8295C80.7744 19.5975 80.3577 19.2472 80.0547 18.7784C79.7517 18.3097 79.6001 17.7131 79.6001 16.9886C79.6001 16.392 79.7019 15.883 79.9055 15.4616C80.1091 15.0355 80.3932 14.6875 80.7578 14.4176C81.1224 14.1477 81.5462 13.9418 82.0291 13.7997C82.5168 13.6577 83.0424 13.5653 83.6058 13.5227C84.2166 13.4754 84.7067 13.4186 85.076 13.3523C85.45 13.2812 85.7199 13.1842 85.8857 13.0611C86.0514 12.9332 86.1342 12.7652 86.1342 12.5568V12.5284C86.1342 12.2443 86.0253 12.0265 85.8075 11.875C85.5897 11.7235 85.3104 11.6477 84.9695 11.6477C84.5954 11.6477 84.29 11.7306 84.0533 11.8963C83.8213 12.0573 83.6816 12.3059 83.6342 12.642H80.0263C80.0736 11.9792 80.2843 11.3684 80.6584 10.8097C81.0372 10.2462 81.5888 9.7964 82.3132 9.46023C83.0376 9.11932 83.942 8.94886 85.0263 8.94886C85.8075 8.94886 86.5083 9.04119 87.1286 9.22585C87.7488 9.40578 88.2768 9.65909 88.7124 9.9858C89.148 10.3078 89.4794 10.6866 89.7067 11.1222C89.9387 11.553 90.0547 12.0218 90.0547 12.5284V20H86.3899V18.4659H86.3047C86.0869 18.8731 85.8217 19.2022 85.5092 19.4531C85.2015 19.7041 84.8487 19.8864 84.451 20C84.058 20.1136 83.6248 20.1705 83.1513 20.1705ZM84.4297 17.6989C84.728 17.6989 85.0073 17.6373 85.2678 17.5142C85.5329 17.3911 85.7483 17.2135 85.9141 16.9815C86.0798 16.7495 86.1626 16.4678 86.1626 16.1364V15.2273C86.0585 15.2699 85.9472 15.3101 85.8288 15.348C85.7152 15.3859 85.5921 15.4214 85.4595 15.4545C85.3317 15.4877 85.1944 15.5185 85.0476 15.5469C84.9055 15.5753 84.7564 15.6013 84.6001 15.625C84.2971 15.6723 84.0485 15.7505 83.8544 15.8594C83.665 15.9635 83.523 16.0938 83.4283 16.25C83.3383 16.4015 83.2933 16.572 83.2933 16.7614C83.2933 17.0644 83.3999 17.2964 83.6129 17.4574C83.826 17.6184 84.0982 17.6989 84.4297 17.6989ZM90.9279 20V9.09091H94.7347V11.1648H94.8484C95.0472 10.3977 95.3621 9.83665 95.793 9.48153C96.2286 9.12642 96.7376 8.94886 97.32 8.94886C97.4904 8.94886 97.6585 8.96307 97.8242 8.99148C97.9947 9.01515 98.158 9.05066 98.3143 9.09801V12.4432C98.1201 12.3769 97.881 12.3272 97.5969 12.294C97.3129 12.2609 97.069 12.2443 96.8654 12.2443C96.4819 12.2443 96.1362 12.3319 95.8285 12.5071C95.5254 12.6776 95.2863 12.919 95.1112 13.2315C94.936 13.5393 94.8484 13.9015 94.8484 14.3182V20H90.9279ZM102.52 13.8636V20H98.5998V9.09091H102.321V11.1648H102.435C102.672 10.4735 103.088 9.93134 103.685 9.53835C104.286 9.14536 104.987 8.94886 105.787 8.94886C106.559 8.94886 107.229 9.12642 107.797 9.48153C108.37 9.83191 108.813 10.3149 109.125 10.9304C109.443 11.5459 109.599 12.2491 109.594 13.0398V20H105.674V13.8636C105.678 13.3239 105.541 12.9001 105.262 12.5923C104.987 12.2846 104.604 12.1307 104.111 12.1307C103.789 12.1307 103.507 12.2017 103.266 12.3438C103.029 12.4811 102.847 12.6799 102.719 12.9403C102.591 13.196 102.525 13.5038 102.52 13.8636Z" fill="#FFFFEF"/>
</g>
<circle cx="116.5" cy="5.5" r="5.5" fill="#FF3E3E"/>
<defs>
<filter id="filter0_d_992_2576" x="0.835805" y="0.345939" width="114.867" height="31.067" filterUnits="userSpaceOnUse" color-interpolation-filters="sRGB">
<feFlood flood-opacity="0" result="BackgroundImageFix"/>
<feColorMatrix in="SourceAlpha" type="matrix" values="0 0 0 0 0 0 0 0 0 0 0 0 0 0 0 0 0 0 127 0" result="hardAlpha"/>
<feOffset dy="1.22034"/>
<feGaussianBlur stdDeviation="3.05085"/>
<feColorMatrix type="matrix" values="0 0 0 0 0 0 0 0 0 0 0 0 0 0 0 0 0 0 0.6 0"/>
<feBlend mode="normal" in2="BackgroundImageFix" result="effect1_dropShadow_992_2576"/>
<feBlend mode="normal" in="SourceGraphic" in2="effect1_dropShadow_992_2576" result="shape"/>
</filter>
</defs>
</svg>
