<svg width="19" height="18" viewBox="0 0 19 18" fill="none" xmlns="http://www.w3.org/2000/svg">
<g clip-path="url(#clip0_493_3246)">
<path d="M3.91323 8.93651C3.91323 8.54306 3.97768 8.15745 4.10659 7.77654C4.23549 7.39563 4.42425 7.05391 4.67132 6.75137C4.91839 6.44884 5.21917 6.2043 5.57213 6.01777C5.92508 5.82966 6.32715 5.73718 6.77986 5.73718C7.32157 5.73718 7.79116 5.86572 8.18862 6.12279C8.58608 6.37987 8.88226 6.72002 9.07715 7.14326L7.90011 8.10415C7.84794 7.9474 7.77734 7.8173 7.69141 7.71384C7.60393 7.61038 7.50879 7.52887 7.4029 7.4693C7.29702 7.40817 7.18806 7.36585 7.0745 7.34233C6.96094 7.31882 6.85198 7.30628 6.74609 7.30628C6.52511 7.30628 6.33482 7.35644 6.17369 7.45519C6.01256 7.55552 5.88212 7.68405 5.7793 7.84551C5.67648 8.0054 5.59975 8.18723 5.55064 8.38945C5.5 8.59166 5.47545 8.7923 5.47545 8.99295C5.47545 9.2171 5.5046 9.43186 5.56292 9.6372C5.62123 9.84255 5.70564 10.0244 5.81613 10.1811C5.92662 10.3379 6.06166 10.4633 6.2228 10.5573C6.38393 10.6514 6.56348 10.6984 6.76297 10.6984C6.86886 10.6984 6.97628 10.6843 7.08678 10.6577C7.19727 10.631 7.30469 10.5856 7.40597 10.5213C7.50725 10.457 7.60087 10.3755 7.6822 10.2768C7.76353 10.1764 7.82799 10.0542 7.87556 9.90995L9.13086 10.7705C9.04646 11.0057 8.91909 11.2173 8.74721 11.4054C8.57687 11.5935 8.38198 11.7502 8.16253 11.8772C7.94462 12.0042 7.70982 12.1014 7.45968 12.1672C7.20954 12.233 6.96554 12.2675 6.72921 12.2675C6.31334 12.2675 5.93276 12.1719 5.58901 11.9822C5.24372 11.7926 4.94755 11.5402 4.69741 11.2251C4.44727 10.9116 4.25391 10.5542 4.11733 10.1561C3.98075 9.75163 3.91323 9.34721 3.91323 8.93651ZM2.42006 0H16.4371C17.1031 0 17.7077 0.277454 18.1466 0.725769C18.5855 1.17408 18.8571 1.79169 18.8571 2.472V15.528C18.8571 16.2083 18.5855 16.8259 18.1466 17.2742C17.7077 17.7225 17.1031 18 16.4371 18H2.42006C1.75405 18 1.14941 17.7225 0.710519 17.2742C0.271624 16.8259 0 16.2083 0 15.528V2.472C0 1.79169 0.271624 1.17252 0.710519 0.725769C1.14788 0.277454 1.75405 0 2.42006 0ZM16.4371 1.55343H2.42006C2.17299 1.55343 1.94894 1.65688 1.78627 1.82304C1.62361 1.9892 1.52232 2.21963 1.52232 2.47043V15.5264C1.52232 15.7788 1.62361 16.0077 1.78627 16.1738C1.94894 16.34 2.17453 16.4434 2.42006 16.4434H16.4371C16.6842 16.4434 16.9082 16.34 17.0709 16.1738C17.2335 16.0077 17.3348 15.7772 17.3348 15.5264V2.472C17.3348 2.21963 17.2335 1.99077 17.0709 1.82461C16.9082 1.65688 16.6842 1.55343 16.4371 1.55343ZM9.72628 8.93651C9.72628 8.54306 9.79074 8.15745 9.91964 7.77654C10.0485 7.39563 10.2373 7.05391 10.4844 6.75137C10.7314 6.44884 11.0322 6.2043 11.3852 6.01777C11.7381 5.82966 12.1402 5.73718 12.5929 5.73718C13.1346 5.73718 13.6042 5.86572 14.0017 6.12279C14.3991 6.37987 14.6953 6.72002 14.8902 7.14326L13.7132 8.10415C13.661 7.9474 13.5904 7.8173 13.5045 7.71384C13.417 7.61038 13.3218 7.52887 13.216 7.4693C13.1101 7.40817 13.0011 7.36585 12.8876 7.34233C12.774 7.31882 12.665 7.30628 12.5592 7.30628C12.3382 7.30628 12.1479 7.35644 11.9867 7.45519C11.8256 7.55552 11.6952 7.68405 11.5924 7.84551C11.4895 8.00697 11.4128 8.18723 11.3637 8.38945C11.3131 8.59166 11.2885 8.7923 11.2885 8.99295C11.2885 9.2171 11.3177 9.43186 11.376 9.6372C11.4343 9.84255 11.5187 10.0244 11.6292 10.1811C11.7397 10.3379 11.8747 10.4633 12.0359 10.5573C12.197 10.6514 12.3765 10.6984 12.576 10.6984C12.6819 10.6984 12.7893 10.6843 12.8998 10.6577C13.0103 10.631 13.1162 10.5856 13.219 10.5213C13.3218 10.4586 13.4139 10.3755 13.4953 10.2768C13.5766 10.1764 13.641 10.0542 13.6886 9.90995L14.9439 10.7705C14.8595 11.0057 14.7321 11.2173 14.5603 11.4054C14.3899 11.5935 14.195 11.7502 13.9756 11.8772C13.7577 12.0042 13.5229 12.1014 13.2727 12.1672C13.0226 12.233 12.7786 12.2675 12.5423 12.2675C12.1264 12.2675 11.7458 12.1719 11.4021 11.9822C11.0568 11.7926 10.7606 11.5402 10.5105 11.2251C10.2603 10.9116 10.067 10.5542 9.93039 10.1561C9.79381 9.75163 9.72475 9.34721 9.72628 8.93651Z" fill="#888888"/>
</g>
<defs>
<clipPath id="clip0_493_3246">
<rect width="18.8571" height="18" fill="white"/>
</clipPath>
</defs>
</svg>
