<svg width="20" height="20" viewBox="0 0 20 20" fill="none" xmlns="http://www.w3.org/2000/svg">
<rect y="0.222168" width="19.9144" height="19.5556" rx="9.77778" fill="url(#paint0_linear_372_10518)"/>
<path d="M7.26629 3.71742C7.58666 3.5602 7.92305 3.48158 8.27546 3.48158C8.64389 3.49731 9.33269 3.73471 9.60501 3.8432C11.3991 4.53499 14.8271 6.79902 16.1406 8.18259C16.3649 8.4027 16.6052 8.66998 16.6692 8.73287C16.9415 9.07877 17.0857 9.50327 17.0857 9.9608C17.0857 10.368 16.9576 10.7768 16.7013 11.107C16.6532 11.1698 16.429 11.4371 16.2527 11.6101L16.1566 11.7044C14.8111 13.1352 11.4632 15.2891 9.7652 15.9809C9.7652 15.9966 8.75602 16.4054 8.27546 16.4211H8.21139C7.47453 16.4211 6.78573 16.0124 6.43332 15.352C6.2411 14.9904 6.06489 13.937 6.04887 13.9213C5.90471 12.9779 5.80859 11.533 5.80859 9.9435C5.80859 8.27692 5.90471 6.76757 6.08091 5.83995C6.08091 5.82422 6.25712 4.97521 6.36925 4.69221C6.54545 4.28343 6.86582 3.93753 7.26629 3.71742Z" fill="white"/>
<defs>
<linearGradient id="paint0_linear_372_10518" x1="13.2551" y1="19.7777" x2="13.0665" y2="-0.40469" gradientUnits="userSpaceOnUse">
<stop stop-color="#C73F3B"/>
<stop offset="1" stop-color="#F85A52"/>
</linearGradient>
</defs>
</svg>
