<svg width="174" height="177" viewBox="0 0 174 177" fill="none" xmlns="http://www.w3.org/2000/svg">
<g filter="url(#filter0_d_1198_1559)">
<g opacity="0.95" filter="url(#filter1_ddd_1198_1559)">
<path fill-rule="evenodd" clip-rule="evenodd" d="M120.451 100.02C121.039 99.1277 121.596 98.2055 122.12 97.2539C132.869 77.7422 125.765 53.2113 106.254 42.4625C86.7421 31.7136 62.2112 38.8173 51.4623 58.329C40.7135 77.8406 47.8172 102.372 67.3288 113.12C68.2805 113.645 69.2441 114.126 70.2174 114.566L120.451 100.02Z" fill="#C6FF4E"/>
</g>
<path fill-rule="evenodd" clip-rule="evenodd" d="M120.385 100.159L70.3478 114.649C75.4432 106.98 83.1773 101.006 92.7139 98.2444C102.251 95.4828 111.98 96.3998 120.385 100.159Z" fill="white" fill-opacity="0.6"/>
<path d="M61.9264 83.3573L60.4725 83.8112L60.6843 76.7025L62.4327 76.1567L66.6483 81.8831L65.1944 82.337L62.0414 77.8882L61.9912 77.9038L61.9264 83.3573ZM61.048 80.8633L64.4821 79.7912L64.8128 80.8502L61.3786 81.9224L61.048 80.8633ZM70.7845 73.5491L72.788 79.9662L71.6161 80.332L67.5634 77.1648L67.5164 77.1795L68.7774 81.2183L67.4206 81.6419L65.4172 75.2249L66.6078 74.8531L70.6377 78.0241L70.6941 78.0065L69.4341 73.9708L70.7845 73.5491ZM76.1837 78.906L73.909 79.6162L71.9055 73.1992L74.1991 72.4831C74.8445 72.2815 75.4403 72.2365 75.9863 72.348C76.5317 72.4574 77.0044 72.7122 77.4044 73.1123C77.8065 73.5117 78.1116 74.0446 78.3196 74.711C78.5283 75.3794 78.5813 75.9933 78.4786 76.5527C78.3779 77.1114 78.1327 77.5926 77.7429 77.9962C77.3552 78.3993 76.8355 78.7025 76.1837 78.906ZM74.9027 78.0301L75.7644 77.7611C76.1655 77.6359 76.4807 77.4596 76.71 77.2321C76.9407 77.0019 77.078 76.7148 77.122 76.371C77.1674 76.0244 77.1154 75.6119 76.966 75.1336C76.818 74.6594 76.627 74.2938 76.3932 74.0367C76.1614 73.7789 75.8865 73.6217 75.5685 73.5651C75.2505 73.5085 74.891 73.5428 74.4899 73.668L73.6251 73.938L74.9027 78.0301ZM84.4243 71.3161C84.3204 71.0711 84.1515 70.9084 83.9177 70.8277C83.6839 70.7471 83.4041 70.7577 83.0782 70.8594C82.8568 70.9286 82.6796 71.0183 82.5467 71.1286C82.4131 71.2367 82.3226 71.3579 82.275 71.4919C82.2295 71.6253 82.2283 71.761 82.2714 71.8988C82.3031 72.015 82.3584 72.1078 82.4373 72.1771C82.5184 72.2458 82.6157 72.2968 82.7293 72.3301C82.8422 72.3614 82.9674 72.3807 83.105 72.3882C83.242 72.3936 83.3853 72.3901 83.535 72.3777L84.1546 72.3356C84.4541 72.3109 84.7371 72.3142 85.0037 72.3456C85.2702 72.377 85.513 72.4422 85.7319 72.5412C85.9508 72.6402 86.1395 72.7785 86.2981 72.9559C86.4587 73.1327 86.5818 73.3545 86.6674 73.6212C86.7879 74.0146 86.7939 74.3864 86.6855 74.7366C86.5785 75.0841 86.3639 75.3952 86.0416 75.6701C85.7208 75.9422 85.2993 76.1597 84.777 76.3228C84.259 76.4845 83.783 76.546 83.3491 76.5073C82.9173 76.4678 82.5452 76.3261 82.2329 76.082C81.922 75.8352 81.6892 75.4826 81.5347 75.0243L82.8475 74.6144C82.9293 74.825 83.047 74.9854 83.2007 75.0956C83.3557 75.2031 83.5366 75.2647 83.7432 75.2804C83.9513 75.2934 84.1723 75.2633 84.4063 75.1903C84.636 75.1185 84.8251 75.0228 84.9734 74.9032C85.1239 74.7828 85.2275 74.6485 85.2843 74.5001C85.3411 74.3516 85.3454 74.2001 85.2971 74.0456C85.2521 73.9014 85.1715 73.7937 85.0552 73.7222C84.941 73.6501 84.7917 73.605 84.6072 73.587C84.4248 73.5683 84.2079 73.5672 83.9563 73.5839L83.2028 73.6266C82.6207 73.6639 82.1293 73.5915 81.7286 73.4094C81.3278 73.2273 81.0545 72.8989 80.9085 72.424C80.7852 72.0362 80.7826 71.6644 80.9008 71.3089C81.0211 70.9526 81.2397 70.6357 81.5565 70.358C81.8732 70.0802 82.2656 69.8683 82.7335 69.7222C83.2097 69.5736 83.6509 69.5252 84.0568 69.5773C84.4649 69.6287 84.8135 69.7686 85.1026 69.997C85.3917 70.2254 85.599 70.5298 85.7247 70.9101L84.4243 71.3161ZM88.1522 75.1693L86.1488 68.7522L88.6805 67.9618C89.1672 67.8099 89.6109 67.7734 90.0115 67.8523C90.4115 67.9292 90.7525 68.1035 91.0345 68.3754C91.318 68.6445 91.5262 68.9922 91.6593 69.4183C91.7923 69.8444 91.8178 70.2491 91.7357 70.6324C91.6536 71.0156 91.4665 71.3526 91.1744 71.6432C90.8844 71.9332 90.4929 72.1552 89.9999 72.3091L88.3863 72.8129L88.0468 71.7256L89.4412 71.2903C89.7023 71.2088 89.9034 71.0967 90.0446 70.954C90.1871 70.8087 90.2751 70.6425 90.3084 70.4556C90.3432 70.2659 90.3277 70.0656 90.2618 69.8546C90.1953 69.6415 90.0944 69.469 89.9592 69.337C89.8254 69.2022 89.6592 69.1177 89.4605 69.0835C89.2612 69.0471 89.0299 69.07 88.7667 69.1522L87.8518 69.4379L89.509 74.7457L88.1522 75.1693ZM98.7602 68.3361C98.9787 69.0359 99.0319 69.6726 98.9199 70.2463C98.81 70.8194 98.5678 71.3065 98.1933 71.7077C97.8202 72.1061 97.3506 72.3937 96.7845 72.5705C96.2143 72.7485 95.662 72.7788 95.1279 72.6613C94.5937 72.5438 94.1184 72.2807 93.702 71.872C93.2855 71.4633 92.9684 70.9101 92.7505 70.2124C92.5321 69.5126 92.4778 68.8762 92.5877 68.3031C92.6977 67.7301 92.9392 67.2443 93.3122 66.8458C93.6847 66.4453 94.156 66.156 94.7263 65.978C95.2924 65.8012 95.8425 65.7716 96.3766 65.8891C96.9122 66.0039 97.3882 66.2656 97.8047 66.6743C98.2233 67.0824 98.5418 67.6363 98.7602 68.3361ZM97.3847 68.7655C97.2432 68.3122 97.056 67.9512 96.823 67.6823C96.5921 67.4128 96.3294 67.2358 96.0348 67.1513C95.7402 67.0667 95.4289 67.0756 95.1009 67.178C94.773 67.2804 94.5119 67.4502 94.3177 67.6873C94.1236 67.9245 94.0072 68.2199 93.9686 68.5735C93.932 68.9265 93.9845 69.3296 94.1261 69.7829C94.2676 70.2362 94.4538 70.5976 94.6846 70.8671C94.9176 71.136 95.1814 71.3127 95.476 71.3972C95.7706 71.4817 96.0819 71.4728 96.4098 71.3704C96.7378 71.268 96.9989 71.0983 97.1931 70.8611C97.3872 70.624 97.5026 70.3289 97.5391 69.9759C97.5777 69.6223 97.5262 69.2188 97.3847 68.7655ZM100.767 71.2308L98.7635 64.8138L101.295 64.0233C101.78 63.872 102.221 63.8296 102.617 63.896C103.015 63.9597 103.354 64.1212 103.632 64.3805C103.911 64.6371 104.117 64.9775 104.25 65.4015C104.383 65.8276 104.405 66.2229 104.317 66.5874C104.229 66.9498 104.035 67.2669 103.737 67.5387C103.441 67.8099 103.047 68.0224 102.554 68.1764L100.859 68.7056L100.518 67.6152L101.994 67.1544C102.253 67.0736 102.457 66.9709 102.606 66.8464C102.756 66.7219 102.85 66.5756 102.889 66.4074C102.93 66.2387 102.918 66.0488 102.852 65.8378C102.786 65.6247 102.687 65.4585 102.555 65.339C102.426 65.2188 102.263 65.1482 102.066 65.1272C101.871 65.1034 101.643 65.1322 101.381 65.2137L100.467 65.4994L102.124 70.8072L100.767 71.2308ZM103.321 67.2286L105.827 69.6509L104.33 70.1185L101.857 67.6855L103.321 67.2286ZM104.659 64.2009L104.309 63.0823L109.58 61.4368L109.929 62.5554L107.964 63.1688L109.619 68.4672L108.278 68.8859L106.623 63.5875L104.659 64.2009ZM76.0308 83.6161C75.9393 83.4773 75.8356 83.3618 75.7197 83.2696C75.6032 83.1753 75.4747 83.1054 75.3344 83.0598C75.1955 83.0114 75.0461 82.9882 74.8862 82.99C74.7284 82.9911 74.5617 83.019 74.3863 83.0738C74.0583 83.1762 73.7955 83.3477 73.5978 83.5882C73.4021 83.8281 73.284 84.1252 73.2433 84.4795C73.202 84.8317 73.2511 85.2313 73.3906 85.6783C73.5302 86.1253 73.7168 86.4843 73.9504 86.7553C74.184 87.0262 74.4508 87.2054 74.7509 87.2928C75.0504 87.3781 75.3693 87.3679 75.7077 87.2623C76.0148 87.1664 76.26 87.0303 76.4433 86.8538C76.6281 86.6746 76.7466 86.4668 76.7989 86.2304C76.8532 85.9934 76.8377 85.738 76.7523 85.4644L77.0407 85.419L75.3863 85.9356L75.0674 84.9141L77.7527 84.0757L78.0051 84.8841C78.1811 85.4481 78.2134 85.9699 78.1018 86.4495C77.9895 86.927 77.7587 87.3406 77.4094 87.6904C77.0595 88.0381 76.615 88.2961 76.0761 88.4643C75.4745 88.6521 74.9046 88.6845 74.3664 88.5614C73.8275 88.4362 73.3541 88.1679 72.946 87.7566C72.5393 87.3425 72.2303 86.7971 72.019 86.1203C71.8566 85.6002 71.787 85.113 71.8103 84.6587C71.8349 84.2016 71.9397 83.7884 72.1247 83.4188C72.3096 83.0493 72.5607 82.7337 72.8778 82.4719C73.195 82.2101 73.5656 82.013 73.9896 81.8806C74.3531 81.7671 74.7081 81.7147 75.0547 81.7235C75.4007 81.7301 75.7248 81.7916 76.0271 81.9082C76.3315 82.024 76.6024 82.1905 76.8398 82.4075C77.0766 82.6225 77.2664 82.8818 77.4094 83.1856L76.0308 83.6161ZM80.7518 86.9082L79.298 87.3621L79.5098 80.2535L81.2581 79.7076L85.4737 85.434L84.0199 85.8879L80.8668 81.4391L80.8167 81.4547L80.7518 86.9082ZM79.8735 84.4143L83.3076 83.3421L83.6382 84.4012L80.2041 85.4733L79.8735 84.4143ZM84.2426 78.7758L85.9158 78.2534L89.0291 82.0131L89.1043 81.9896L89.5254 77.1265L91.1986 76.6041L93.2021 83.0211L91.8861 83.432L90.5821 79.2553L90.5288 79.2719L90.1624 83.9358L89.2662 84.2155L86.3065 80.573L86.2532 80.5896L87.5621 84.782L86.2461 85.1928L84.2426 78.7758ZM94.3199 82.6721L92.3164 76.2551L96.6404 74.9051L96.9896 76.0237L94.0224 76.9501L94.4998 78.4792L97.2446 77.6222L97.5938 78.7408L94.849 79.5977L95.3274 81.1299L98.3072 80.1996L98.6564 81.3182L94.3199 82.6721ZM101.776 75.327C101.672 75.0821 101.503 74.9193 101.27 74.8387C101.036 74.7581 100.756 74.7687 100.43 74.8704C100.209 74.9395 100.032 75.0292 99.8987 75.1395C99.7651 75.2477 99.6746 75.3688 99.627 75.5029C99.5816 75.6363 99.5804 75.7719 99.6234 75.9098C99.6551 76.026 99.7104 76.1187 99.7894 76.1881C99.8704 76.2568 99.9677 76.3078 100.081 76.3411C100.194 76.3723 100.319 76.3917 100.457 76.3991C100.594 76.4045 100.737 76.401 100.887 76.3887L101.507 76.3465C101.806 76.3218 102.089 76.3252 102.356 76.3566C102.622 76.388 102.865 76.4532 103.084 76.5522C103.303 76.6512 103.492 76.7894 103.65 76.9669C103.811 77.1437 103.934 77.3654 104.019 77.6322C104.14 78.0255 104.146 78.3973 104.038 78.7475C103.931 79.095 103.716 79.4062 103.394 79.681C103.073 79.9531 102.651 80.1707 102.129 80.3337C101.611 80.4955 101.135 80.557 100.701 80.5182C100.269 80.4788 99.8972 80.3371 99.5849 80.093C99.274 79.8462 99.0413 79.4936 98.8867 79.0352L100.2 78.6253C100.281 78.8359 100.399 78.9963 100.553 79.1065C100.708 79.214 100.889 79.2756 101.095 79.2913C101.303 79.3043 101.524 79.2743 101.758 79.2012C101.988 79.1295 102.177 79.0338 102.325 78.9141C102.476 78.7938 102.58 78.6594 102.636 78.511C102.693 78.3626 102.697 78.2111 102.649 78.0565C102.604 77.9124 102.524 77.8046 102.407 77.7332C102.293 77.6611 102.144 77.616 101.959 77.5979C101.777 77.5792 101.56 77.5782 101.308 77.5948L100.555 77.6375C99.9727 77.6748 99.4813 77.6024 99.0806 77.4204C98.6799 77.2383 98.4065 76.9098 98.2606 76.435C98.1372 76.0471 98.1346 75.6754 98.2528 75.3198C98.3732 74.9636 98.5917 74.6466 98.9085 74.3689C99.2253 74.0912 99.6176 73.8793 100.086 73.7332C100.562 73.5845 101.003 73.5362 101.409 73.5883C101.817 73.6397 102.166 73.7796 102.455 74.008C102.744 74.2364 102.951 74.5407 103.077 74.921L101.776 75.327Z" fill="#463D3D"/>
</g>
<defs>
<filter id="filter0_d_1198_1559" x="29.069" y="23" width="115.444" height="115.445" filterUnits="userSpaceOnUse" color-interpolation-filters="sRGB">
<feFlood flood-opacity="0" result="BackgroundImageFix"/>
<feColorMatrix in="SourceAlpha" type="matrix" values="0 0 0 0 0 0 0 0 0 0 0 0 0 0 0 0 0 0 127 0" result="hardAlpha"/>
<feOffset dy="2.93099"/>
<feGaussianBlur stdDeviation="1.46549"/>
<feComposite in2="hardAlpha" operator="out"/>
<feColorMatrix type="matrix" values="0 0 0 0 0 0 0 0 0 0 0 0 0 0 0 0 0 0 0.25 0"/>
<feBlend mode="normal" in2="BackgroundImageFix" result="effect1_dropShadow_1198_1559"/>
<feBlend mode="normal" in="SourceGraphic" in2="effect1_dropShadow_1198_1559" result="shape"/>
</filter>
<filter id="filter1_ddd_1198_1559" x="0.44873" y="0.44873" width="172.685" height="176.118" filterUnits="userSpaceOnUse" color-interpolation-filters="sRGB">
<feFlood flood-opacity="0" result="BackgroundImageFix"/>
<feColorMatrix in="SourceAlpha" type="matrix" values="0 0 0 0 0 0 0 0 0 0 0 0 0 0 0 0 0 0 127 0" result="hardAlpha"/>
<feOffset dy="11"/>
<feGaussianBlur stdDeviation="7.5"/>
<feColorMatrix type="matrix" values="0 0 0 0 0 0 0 0 0 0 0 0 0 0 0 0 0 0 0.2 0"/>
<feBlend mode="normal" in2="BackgroundImageFix" result="effect1_dropShadow_1198_1559"/>
<feColorMatrix in="SourceAlpha" type="matrix" values="0 0 0 0 0 0 0 0 0 0 0 0 0 0 0 0 0 0 127 0" result="hardAlpha"/>
<feOffset dy="9"/>
<feGaussianBlur stdDeviation="23"/>
<feColorMatrix type="matrix" values="0 0 0 0 0 0 0 0 0 0 0 0 0 0 0 0 0 0 0.12 0"/>
<feBlend mode="normal" in2="effect1_dropShadow_1198_1559" result="effect2_dropShadow_1198_1559"/>
<feColorMatrix in="SourceAlpha" type="matrix" values="0 0 0 0 0 0 0 0 0 0 0 0 0 0 0 0 0 0 127 0" result="hardAlpha"/>
<feOffset dy="24"/>
<feGaussianBlur stdDeviation="19"/>
<feColorMatrix type="matrix" values="0 0 0 0 0 0 0 0 0 0 0 0 0 0 0 0 0 0 0.14 0"/>
<feBlend mode="normal" in2="effect2_dropShadow_1198_1559" result="effect3_dropShadow_1198_1559"/>
<feBlend mode="normal" in="SourceGraphic" in2="effect3_dropShadow_1198_1559" result="shape"/>
</filter>
</defs>
</svg>
