<svg width="24" height="24" viewBox="0 0 24 24" fill="none" xmlns="http://www.w3.org/2000/svg">
<path d="M4.57479 19.425C4.58379 19.433 4.59479 19.436 4.60379 19.444C6.57222 21.4119 9.24179 22.5173 12.0252 22.5169C14.8086 22.5165 17.4779 21.4105 19.4458 19.442C21.4137 17.4736 22.519 14.804 22.5187 12.0206C22.5183 9.2372 21.4122 6.56794 19.4438 4.60003C19.4358 4.59103 19.4328 4.58003 19.4248 4.57103C19.4168 4.56203 19.4048 4.56003 19.3958 4.55203C17.4268 2.58412 14.7567 1.47899 11.973 1.47974C9.18917 1.48049 6.51969 2.58706 4.55179 4.55603C2.58388 6.525 1.47874 9.19507 1.47949 11.9789C1.48024 14.7626 2.58682 17.4321 4.55579 19.4C4.56379 19.405 4.56679 19.416 4.57479 19.425ZM11.9998 21.5C9.65447 21.4993 7.39324 20.6264 5.65579 19.051L12.6998 12.006C13.4015 12.7347 14.0612 13.5026 14.6758 14.306C14.6098 14.366 14.5368 14.415 14.4758 14.478C13.583 15.3722 12.9712 16.5081 12.7159 17.7457C12.4605 18.9832 12.5728 20.2685 13.0388 21.443C12.6938 21.4813 12.3469 21.5003 11.9998 21.5ZM14.0448 21.272C13.5982 20.2606 13.4678 19.1379 13.6707 18.0511C13.8736 16.9642 14.4004 15.9642 15.1818 15.182C15.2088 15.156 15.2398 15.136 15.2668 15.11C16.2561 16.4924 17.0867 17.9818 17.7428 19.55C16.6502 20.3864 15.3881 20.974 14.0448 21.272ZM18.5448 18.872C17.8679 17.3298 17.0327 15.8619 16.0528 14.492C16.8166 13.9876 17.6946 13.6825 18.6066 13.6048C19.5187 13.5271 20.4356 13.6791 21.2738 14.047C20.8639 15.8907 19.913 17.5701 18.5428 18.87L18.5448 18.872ZM21.4998 12C21.499 12.3469 21.479 12.6934 21.4398 13.038C20.4655 12.6527 19.4121 12.51 18.3703 12.6221C17.3286 12.7343 16.3297 13.0981 15.4598 13.682C14.8217 12.8496 14.1366 12.0543 13.4078 11.3L19.0508 5.65703C20.6259 7.39423 21.4988 9.65506 21.4998 12ZM11.9998 2.50003C14.3451 2.50076 16.6063 3.37367 18.3438 4.94903L12.6998 10.592C11.9453 9.8628 11.15 9.17703 10.3178 8.53803C10.9009 7.6681 11.2641 6.66958 11.3761 5.62828C11.4881 4.58699 11.3456 3.53407 10.9608 2.56003C11.3057 2.52078 11.6526 2.50075 11.9998 2.50003ZM9.95479 2.72803C10.3231 3.56564 10.4755 4.48223 10.3982 5.39397C10.3208 6.3057 10.016 7.18348 9.51179 7.94703C8.14228 6.96625 6.67396 6.13138 5.13079 5.45603C6.43124 4.08659 8.111 3.13667 9.95479 2.72803ZM4.44979 6.25703C6.01906 6.9112 7.50895 7.74152 8.89079 8.73203C8.86479 8.75903 8.84479 8.79103 8.81779 8.81803C8.03528 9.59917 7.03503 10.1257 5.94814 10.3286C4.86124 10.5315 3.73841 10.4013 2.72679 9.95503C3.02575 8.61186 3.61371 7.34994 4.44979 6.25703ZM2.55779 10.974C3.73334 11.4414 5.0203 11.5533 6.25887 11.2957C7.49744 11.0381 8.63308 10.4224 9.52479 9.52503C9.58879 9.46103 9.63679 9.38803 9.69779 9.32503C10.5013 9.93988 11.2692 10.5999 11.9978 11.302L4.94879 18.344C4.04937 17.3561 3.37091 16.1877 2.95861 14.9168C2.54632 13.646 2.40967 12.3019 2.55779 10.974Z" fill="black"/>
</svg>
