<svg width="24" height="24" viewBox="0 0 24 24" fill="none" xmlns="http://www.w3.org/2000/svg">
<path d="M12 22.5C14.0767 22.5 16.1068 21.8842 17.8335 20.7304C19.5602 19.5767 20.906 17.9368 21.7007 16.0182C22.4955 14.0996 22.7034 11.9884 22.2982 9.95156C21.8931 7.91476 20.8931 6.04384 19.4246 4.57538C17.9562 3.10693 16.0852 2.1069 14.0484 1.70176C12.0116 1.29661 9.90045 1.50455 7.98182 2.29927C6.0632 3.09399 4.42332 4.4398 3.26957 6.16652C2.11581 7.89323 1.5 9.9233 1.5 12C1.50318 14.7838 2.61044 17.4527 4.57889 19.4211C6.54733 21.3896 9.2162 22.4968 12 22.5ZM12 21.5C11.0747 21.5012 10.1542 21.3664 9.268 21.1L11.293 19.076L13.58 21.363C13.058 21.4523 12.5295 21.4981 12 21.5ZM9.1 12.629L10.838 9.729L13.7 10.3L14.273 13.163L11.373 14.902L9.1 12.629ZM14.732 21.1L11.793 18.162V15.818L14.919 13.942L17.981 14.554L19.192 18.189C18.0126 19.564 16.4654 20.5739 14.732 21.1ZM19.926 17.23L19 14.438L21.349 13.654C21.125 14.9295 20.6406 16.1451 19.926 17.225V17.23ZM21.5 12C21.5 12.189 21.483 12.373 21.472 12.559L18.332 13.605L15.253 12.989L14.664 10.043L17.127 7.581L20.645 8.08101C21.2076 9.31095 21.4992 10.6475 21.5 12ZM20.056 6.989L17.392 6.608L17.011 3.944C18.2443 4.7143 19.2857 5.7557 20.056 6.989ZM11.441 2.528C11.627 2.517 11.811 2.5 12 2.5C13.3515 2.50096 14.6871 2.79256 15.916 3.355L16.416 6.874L13.957 9.33601L11.011 8.747L10.4 5.669L11.441 2.528ZM10.341 2.654L9.562 5L6.775 4.075C7.85488 3.36137 9.0701 2.87767 10.345 2.654H10.341ZM5.812 4.807L9.445 6.019L10.058 9.08L8.182 12.207H5.843L2.905 9.268C3.42976 7.53468 4.43825 5.98709 5.812 4.807ZM2.5 12C2.50353 11.4703 2.55102 10.9418 2.642 10.42L4.929 12.707L2.905 14.732C2.63692 13.8461 2.50046 12.9256 2.5 12ZM5.843 13.207H8.258L10.793 15.743V18.157L8.233 20.717C6.01599 19.7529 4.24706 17.984 3.283 15.767L5.843 13.207Z" fill="black"/>
</svg>
