<svg width="15" height="20" viewBox="0 0 15 20" fill="none" xmlns="http://www.w3.org/2000/svg">
<path d="M13.427 9.12079C13.7235 9.14503 14.0205 9.12941 14.3173 9.13181C14.3854 9.13241 14.4086 9.15064 14.4084 9.22194C14.4058 10.5035 14.412 11.7852 14.402 13.0668C14.3978 13.6007 14.3143 14.1275 14.1791 14.6456C14.0177 15.2641 13.7755 15.8485 13.4559 16.4011C13.2221 16.805 12.9468 17.1794 12.6373 17.5289C12.1364 18.0945 11.559 18.5683 10.9051 18.9445C10.1903 19.3558 9.42599 19.6346 8.61084 19.7778C8.07168 19.8726 7.53011 19.893 6.98695 19.8686C6.40653 19.8423 5.83912 19.7332 5.28394 19.5571C4.61259 19.3444 3.98771 19.0394 3.4109 18.6374C2.84189 18.2411 2.34078 17.772 1.90877 17.2278C1.48578 16.6957 1.1459 16.1163 0.893741 15.486C0.64539 14.8647 0.480357 14.2216 0.427082 13.5528C0.350373 12.5901 0.404049 11.6253 0.391031 10.6616C0.384622 10.1877 0.392633 9.71363 0.387626 9.23976C0.386625 9.14783 0.415666 9.12941 0.500385 9.13101C0.753943 9.13621 1.0077 9.13321 1.26126 9.13241C1.29751 9.13221 1.33376 9.1268 1.37001 9.1238C1.42008 9.09896 1.47396 9.10457 1.52703 9.10457C2.23263 9.10357 2.93803 9.10577 3.64362 9.10297C3.72995 9.07853 3.81607 9.10517 3.90239 9.10517C5.24629 9.10417 6.59018 9.11038 7.93408 9.09956C8.21308 9.09736 8.49407 9.09275 8.77187 9.09736C9.56198 9.11038 10.3521 9.09135 11.1422 9.10757C11.8546 9.10076 12.567 9.10637 13.2794 9.10457C13.3291 9.10457 13.3796 9.09956 13.427 9.12079Z" fill="white"/>
<path d="M3.65398 9.12552C3.5977 9.12732 3.54142 9.13093 3.48514 9.13093C2.81339 9.13113 2.14164 9.13113 1.4697 9.13053C1.43665 9.13053 1.4036 9.12692 1.37056 9.12492C1.37116 8.25389 1.35493 7.38246 1.37636 6.51203C1.41141 5.08642 1.90691 3.82784 2.83783 2.74952C3.72989 1.71626 4.84707 1.0351 6.19036 0.784944C8.44475 0.365152 10.3695 1.01086 11.915 2.70465C12.8353 3.71308 13.321 4.92459 13.4122 6.28911C13.4464 6.80224 13.4226 7.31656 13.4266 7.83029C13.43 8.2607 13.4274 8.69131 13.4274 9.12171C13.4048 9.12492 13.3821 9.13073 13.3595 9.13073C12.6407 9.13133 11.9217 9.13133 11.2028 9.13093C11.1832 9.13093 11.1636 9.12652 11.144 9.12432C11.1023 9.07945 11.1159 9.02337 11.1159 8.9717C11.1149 8.16777 11.1241 7.36363 11.1123 6.5599C11.1037 5.98408 10.9467 5.44192 10.6763 4.9322C10.4608 4.52582 10.1728 4.17673 9.8297 3.87591C9.44176 3.53583 8.99693 3.28848 8.50183 3.13586C8.2008 3.04313 7.89377 2.99166 7.57812 2.97724C6.58452 2.93197 5.70848 3.2344 4.96263 3.88452C4.234 4.51962 3.812 5.32616 3.70265 6.29132C3.68803 6.4209 3.68242 6.55028 3.68242 6.68047C3.68322 7.44434 3.68302 8.20842 3.68222 8.9723C3.68202 9.02437 3.69364 9.08005 3.65398 9.12552Z" fill="white"/>
<path d="M7.39369 16.6266C6.94005 16.6266 6.48641 16.625 6.03278 16.6282C5.95286 16.6288 5.93063 16.617 5.95466 16.5303C6.1926 15.6696 6.42473 14.8076 6.66306 13.947C6.6855 13.8663 6.67508 13.8278 6.60178 13.7808C5.95126 13.3642 5.73976 12.5048 6.11769 11.8348C6.50124 11.155 7.34142 10.8847 8.0384 11.2318C8.5319 11.4777 8.8175 11.8857 8.85816 12.4389C8.89982 13.0079 8.66929 13.4575 8.19823 13.7786C8.12833 13.8262 8.1107 13.8625 8.13354 13.945C8.37047 14.799 8.6026 15.6544 8.83573 16.5094C8.86757 16.6262 8.86697 16.6266 8.7446 16.6268C8.29436 16.627 7.84393 16.6268 7.39369 16.6268C7.39369 16.627 7.39369 16.6268 7.39369 16.6266Z" fill="#2B1212"/>
</svg>
