<svg width="20" height="20" viewBox="0 0 20 20" fill="none" xmlns="http://www.w3.org/2000/svg">
<path d="M9.99967 19.1668C4.93937 19.1613 0.838565 15.0605 0.833008 10.0002V9.81685C0.933778 4.77933 5.08138 0.767473 10.1195 0.834319C15.1575 0.901166 19.1972 5.02166 19.1643 10.0601C19.1314 15.0985 15.0382 19.1658 9.99967 19.1668ZM9.99967 2.66685C5.94959 2.66685 2.66634 5.95009 2.66634 10.0002C2.66634 14.0503 5.94959 17.3335 9.99967 17.3335C14.0498 17.3335 17.333 14.0503 17.333 10.0002C17.3285 5.95198 14.0479 2.67139 9.99967 2.66685ZM8.67051 14.5835L7.37434 13.2864L10.6148 10.046L7.37434 6.8056L8.67051 5.50851L13.208 10.046L8.67142 14.5835H8.67051Z" fill="white"/>
</svg>
