<svg width="22" height="22" viewBox="0 0 22 22" fill="none" xmlns="http://www.w3.org/2000/svg">
<path d="M8.21966 4.39099C8.5506 4.2256 8.89809 4.1429 9.26213 4.1429C9.64271 4.15944 10.3542 4.40918 10.6355 4.5233C12.4888 5.25102 16.0299 7.63267 17.3868 9.08811C17.6184 9.31966 17.8667 9.60083 17.9328 9.66699C18.2141 10.0308 18.3631 10.4774 18.3631 10.9587C18.3631 11.3871 18.2307 11.8171 17.9659 12.1644C17.9163 12.2306 17.6846 12.5117 17.5026 12.6937L17.4033 12.7929C16.0134 14.298 12.555 16.5638 10.801 17.2915C10.801 17.3081 9.75854 17.7381 9.26213 17.7546H9.19594C8.43477 17.7546 7.72324 17.3246 7.35921 16.63C7.16064 16.2496 6.97862 15.1415 6.96207 15.1249C6.81315 14.1326 6.71387 12.6126 6.71387 10.9405C6.71387 9.18735 6.81315 7.59959 6.99517 6.62378C6.99517 6.60724 7.17719 5.71412 7.29302 5.41642C7.47504 4.9864 7.80598 4.62254 8.21966 4.39099Z" fill="#FFFFEF"/>
</svg>
