<svg width="24" height="24" viewBox="0 0 24 24" fill="none" xmlns="http://www.w3.org/2000/svg">
<path d="M15.8381 1.52903C13.8547 1.74026 12.0073 2.6376 10.6151 4.06603C9.18636 5.45797 8.28896 7.30548 8.07814 9.28903C8.00695 10.0426 8.06272 10.8029 8.24314 11.538L7.07214 16.221L1.64614 21.646C1.55226 21.7399 1.49951 21.8673 1.49951 22C1.49951 22.1328 1.55226 22.2601 1.64614 22.354C1.74003 22.4479 1.86737 22.5007 2.00014 22.5007C2.13292 22.5007 2.26026 22.4479 2.35414 22.354L7.77914 16.928L12.4991 15.748C13.0056 15.8767 13.5256 15.9439 14.0481 15.948C14.2661 15.948 14.4868 15.938 14.7101 15.918C16.6938 15.7076 18.5415 14.8102 19.9331 13.381C22.9771 10.338 23.3631 5.77103 20.7941 3.20103C20.1445 2.5711 19.3625 2.09412 18.5051 1.80486C17.6477 1.5156 16.7366 1.42137 15.8381 1.52903ZM8.21114 15.789L8.88114 13.11C9.12218 13.5243 9.41522 13.9061 9.75314 14.246C10.1008 14.5837 10.4903 14.8754 10.9121 15.114L8.21114 15.789ZM19.2261 12.678C18 13.9416 16.3707 14.7368 14.6201 14.926C13.8673 15.0182 13.1033 14.9416 12.3837 14.7016C11.6642 14.4617 11.0071 14.0646 10.4601 13.539C8.28114 11.359 8.66714 7.42803 11.3221 4.77303C12.6799 3.36609 14.5365 2.54965 16.4911 2.50003C17.1549 2.48458 17.8151 2.60149 18.4332 2.84391C19.0513 3.08634 19.6149 3.44944 20.0911 3.91203C22.2661 6.09203 21.8801 10.024 19.2261 12.678Z" fill="black"/>
</svg>
