<!-- Generated by IcoMoon.io -->
<svg version="1.1" xmlns="http://www.w3.org/2000/svg" width="1024" height="1024" viewBox="0 0 1024 1024">
<title></title>
<g id="icomoon-ignore">
</g>
<path fill="#ffffec" d="M128 658.286h566.857c181.394 0 329.143-147.749 329.143-329.143s-147.749-329.143-329.143-329.143c-181.394 0-329.143 147.749-329.143 329.143 0 103.497 47.909 195.657 122.88 256h-360.594c-70.583 0-128 57.417-128 128s57.417 128 128 128h621.714c30.354 0 54.857 24.503 54.857 54.857s-24.503 54.857-54.857 54.857h-201.143c-20.114 0-36.571 16.457-36.571 36.571s16.457 36.571 36.571 36.571h201.143c70.583 0 128-57.417 128-128s-57.417-128-128-128h-621.714c-30.354 0-54.857-24.503-54.857-54.857s24.503-54.857 54.857-54.857zM438.857 329.143c0-141.166 114.834-256 256-256s256 114.834 256 256c0 141.166-114.834 256-256 256s-256-114.834-256-256z"></path>
<path fill="#ffffec" d="M694.857 109.714c-20.114 0-36.571 16.457-36.571 36.571v73.143c0 20.114 16.457 36.571 36.571 36.571s36.571-16.457 36.571-36.571v-73.143c0-20.114-16.457-36.571-36.571-36.571z"></path>
<path fill="#ffffec" d="M694.857 402.286c-20.114 0-36.571 16.457-36.571 36.571v73.143c0 20.114 16.457 36.571 36.571 36.571s36.571-16.457 36.571-36.571v-73.143c0-20.114-16.457-36.571-36.571-36.571z"></path>
<path fill="#ffffec" d="M914.286 329.143c0-20.114-16.457-36.571-36.571-36.571h-73.143c-20.114 0-36.571 16.457-36.571 36.571s16.457 36.571 36.571 36.571h73.143c20.114 0 36.571-16.457 36.571-36.571z"></path>
<path fill="#ffffec" d="M585.143 292.571h-73.143c-20.114 0-36.571 16.457-36.571 36.571s16.457 36.571 36.571 36.571h73.143c20.114 0 36.571-16.457 36.571-36.571s-16.457-36.571-36.571-36.571z"></path>
</svg>
