<svg width="194" height="24" viewBox="0 0 194 24" fill="none" xmlns="http://www.w3.org/2000/svg">
<path d="M31.6309 16.1502C31.6309 17.2887 31.8458 18.1002 32.2762 18.583C32.7072 19.0657 33.3531 19.3065 34.2139 19.3065C34.6987 19.3065 35.1588 19.2496 35.5974 19.1397C36.0353 19.0303 36.4202 18.8977 36.7533 18.7351L36.4133 16.6544C36.2009 16.743 36.0044 16.8072 35.8236 16.8518C35.6435 16.8952 35.4387 16.9159 35.2118 16.9159C34.8794 16.9159 34.6494 16.787 34.5211 16.523C34.3915 16.2608 34.3283 15.8148 34.3283 15.1866V10.4104H36.5264V8.08704H34.3283V5.2174L31.6309 6.0277V16.1502Z" fill="white"/>
<path d="M181.909 16.1502C181.909 17.2887 182.125 18.1002 182.555 18.583C182.986 19.0657 183.631 19.3065 184.492 19.3065C184.976 19.3065 185.437 19.2496 185.875 19.1397C186.314 19.0303 186.699 18.8977 187.031 18.7351L186.691 16.6544C186.479 16.743 186.283 16.8072 186.102 16.8518C185.921 16.8952 185.717 16.9159 185.49 16.9159C185.157 16.9159 184.928 16.787 184.799 16.523C184.67 16.2608 184.606 15.8148 184.606 15.1866V10.4104H186.805V8.08704H184.606V5.2174L181.909 6.0277V16.1502Z" fill="white"/>
<path d="M44.0488 16.0189C43.9287 16.2536 43.7391 16.4687 43.4825 16.6649C43.2266 16.8641 42.8929 16.96 42.4858 16.96C42.1534 16.96 41.893 16.8439 41.7041 16.6111C41.5145 16.3783 41.4203 16.0342 41.4203 15.5808C41.4203 15.2734 41.4923 15.0229 41.6371 14.8249C41.7786 14.6269 41.9727 14.4778 42.2128 14.3764C42.4555 14.2737 42.7349 14.2071 43.0521 14.1784C43.37 14.149 43.7012 14.157 44.0488 14.1998V16.0189ZM46.5642 15.5472C46.5793 14.9104 46.6065 14.2621 46.6438 13.5972C46.6817 12.933 46.7007 12.2565 46.7007 11.5715C46.7007 10.3884 46.4472 9.47488 45.9416 8.83203C45.4354 8.18917 44.5411 7.86713 43.2563 7.86713C42.3955 7.86713 41.6251 7.9484 40.9457 8.10729C40.2644 8.26983 39.6987 8.48188 39.2456 8.74403L39.9256 10.694C40.3016 10.5046 40.7333 10.3579 41.2174 10.2558C41.7003 10.1526 42.1692 10.1025 42.6224 10.1025C43.2411 10.1025 43.6449 10.2919 43.8339 10.672C44.0222 11.0521 44.0804 11.665 44.0039 12.5126C42.3575 12.4252 41.0499 12.658 40.0836 13.2153C39.1166 13.7683 38.6331 14.7039 38.6331 16.0189C38.6331 16.9845 38.8897 17.752 39.4036 18.3313C39.9167 18.9063 40.6189 19.1953 41.5107 19.1953C42.1755 19.1953 42.726 19.0566 43.1659 18.7792C43.6039 18.5012 43.9432 18.151 44.1853 17.7281H44.2763L44.7067 19.0615H46.9048C46.738 18.539 46.6362 17.9799 46.5989 17.3878C46.561 16.7981 46.5496 16.1821 46.5642 15.5472Z" fill="white"/>
<path d="M69.4746 15.7131V8.08686H66.7779V15.4052C66.6578 15.828 66.4537 16.1904 66.1674 16.4923C65.8798 16.7905 65.5246 16.939 65.1012 16.939C64.6645 16.939 64.3611 16.7721 64.1943 16.4367C64.0293 16.0993 63.9459 15.4999 63.9459 14.6376V8.08686H61.2491V15.209C61.2491 16.0254 61.3167 16.7031 61.4533 17.2341C61.5885 17.77 61.7851 18.1892 62.0429 18.496C62.2989 18.8009 62.6105 19.0185 62.9713 19.1395C63.3335 19.2635 63.7493 19.3289 64.217 19.3289C64.9432 19.3289 65.5505 19.1609 66.0422 18.8242C66.5333 18.4874 66.922 18.064 67.2089 17.5525H67.2772L67.7531 19.0417H69.7919C69.6718 18.5736 69.5897 18.0536 69.5429 17.4779C69.4987 16.898 69.4746 16.3114 69.4746 15.7131Z" fill="white"/>
<path d="M80.3977 8.66692C80.1569 8.3681 79.8579 8.153 79.5028 8.02162C79.1482 7.88902 78.7443 7.82424 78.2912 7.82424C77.536 7.82424 76.9235 7.97518 76.4565 8.27278C75.9875 8.57282 75.6172 8.93458 75.3448 9.35683H75.2759L74.9599 8.08701H72.8067V19.0418H75.5034V11.4406C75.6248 11.0886 75.8289 10.7978 76.1158 10.5631C76.4015 10.3284 76.7422 10.2111 77.134 10.2111C77.6048 10.2111 77.936 10.3737 78.1332 10.6951C78.3279 11.0159 78.4271 11.5787 78.4271 12.3817V19.0418H81.1232V11.7455C81.1232 11.0019 81.0638 10.3767 80.9418 9.87319C80.8211 9.37028 80.6397 8.96757 80.3977 8.66692Z" fill="white"/>
<path d="M167.109 8.66692C166.869 8.3681 166.57 8.153 166.214 8.02162C165.86 7.88902 165.455 7.82424 165.003 7.82424C164.248 7.82424 163.635 7.97518 163.168 8.27278C162.699 8.57282 162.328 8.93458 162.056 9.35683H161.988L161.671 8.08701H159.518V19.0418H162.215V11.4406C162.335 11.0886 162.54 10.7978 162.827 10.5631C163.113 10.3284 163.454 10.2111 163.845 10.2111C164.316 10.2111 164.647 10.3737 164.844 10.6951C165.04 11.0159 165.139 11.5787 165.139 12.3817V19.0418H167.835V11.7455C167.835 11.0019 167.775 10.3767 167.654 9.87319C167.533 9.37028 167.351 8.96757 167.109 8.66692Z" fill="white"/>
<path d="M101.157 13.4225C100.84 13.1377 100.503 12.8994 100.147 12.7106C99.7927 12.5187 99.4571 12.3378 99.1405 12.1618C98.822 11.9871 98.5622 11.8092 98.3575 11.6265C98.154 11.4426 98.0528 11.2128 98.0528 10.9354C98.0528 10.3371 98.4226 10.0383 99.162 10.0383C99.5538 10.0383 99.9545 10.0921 100.364 10.2021C100.772 10.3103 101.118 10.4239 101.406 10.5412L102.04 8.52529C101.692 8.31996 101.224 8.14947 100.635 8.01137C100.046 7.87082 99.4192 7.80116 98.7556 7.80116C97.6363 7.80116 96.7907 8.08042 96.2162 8.63406C95.6411 9.18892 95.3542 9.97844 95.3542 11.002C95.3542 11.6002 95.4572 12.0977 95.6607 12.4918C95.8648 12.8853 96.1252 13.2221 96.4431 13.4989C96.7598 13.7763 97.0947 14.0097 97.4512 14.1998C97.8064 14.391 98.1426 14.5768 98.4586 14.7571C98.7771 14.941 99.0375 15.139 99.241 15.3511C99.4458 15.5631 99.5475 15.8222 99.5475 16.129C99.5475 16.4651 99.4338 16.7089 99.2088 16.8641C98.9819 17.015 98.6931 17.0932 98.3461 17.0932C97.8936 17.0932 97.4581 17.0266 97.0435 16.8953C96.627 16.7633 96.2624 16.6111 95.9445 16.4369L95.1968 18.5391C95.5596 18.7719 96.0386 18.9607 96.6359 19.1086C97.2331 19.2534 97.8398 19.3292 98.4586 19.3292C99.7125 19.3292 100.657 19.0182 101.292 18.4052C101.926 17.7923 102.244 16.9845 102.244 15.9731C102.244 15.3773 102.143 14.8732 101.937 14.4632C101.736 14.055 101.473 13.7066 101.157 13.4225Z" fill="white"/>
<path d="M112.623 8.658C112.381 8.35063 112.086 8.13064 111.739 7.99925C111.392 7.86726 110.982 7.80126 110.514 7.80126C109.864 7.80126 109.324 7.91798 108.895 8.15264C108.464 8.3879 108.097 8.69283 107.795 9.07231H107.728V3.7058H105.028V19.0415H107.728V11.505C107.833 11.1262 108.037 10.8114 108.339 10.5633C108.641 10.3146 108.973 10.1906 109.337 10.1906C109.836 10.1906 110.178 10.3654 110.368 10.7155C110.557 11.0675 110.65 11.6358 110.65 12.4253V19.0415H113.347V11.8564C113.347 11.0675 113.285 10.4142 113.165 9.89422C113.044 9.37663 112.863 8.96354 112.623 8.658Z" fill="white"/>
<path d="M121.901 16.2278C121.622 16.7466 121.195 17.007 120.621 17.007C120.018 17.007 119.587 16.7045 119.331 16.1068C119.074 15.5074 118.946 14.661 118.946 13.5654C118.946 12.309 119.093 11.4223 119.387 10.9029C119.682 10.3835 120.093 10.1244 120.621 10.1244C121.24 10.1244 121.679 10.4171 121.935 11.0019C122.193 11.5861 122.322 12.4397 122.322 13.5654C122.322 14.8205 122.18 15.7096 121.901 16.2278ZM120.621 7.80104C119.216 7.80104 118.122 8.27585 117.336 9.22608C116.553 10.1757 116.158 11.6227 116.158 13.5654C116.158 17.4084 117.645 19.3291 120.621 19.3291C122.043 19.3291 123.146 18.8573 123.931 17.9138C124.716 16.9715 125.109 15.5239 125.109 13.5654C125.109 11.6502 124.738 10.2111 123.999 9.24808C123.257 8.28379 122.133 7.80104 120.621 7.80104Z" fill="white"/>
<path d="M127.934 16.1502C127.934 17.2887 128.15 18.1002 128.58 18.583C129.013 19.0657 129.657 19.3065 130.52 19.3065C131.002 19.3065 131.462 19.2496 131.901 19.1397C132.339 19.0303 132.725 18.8977 133.057 18.7351L132.717 16.6544C132.504 16.743 132.31 16.8072 132.128 16.8518C131.947 16.8952 131.742 16.9159 131.515 16.9159C131.184 16.9159 130.953 16.787 130.824 16.523C130.697 16.2608 130.63 15.8148 130.63 15.1866V10.4104H132.831V8.08704H130.63V5.2174L127.934 6.0277V16.1502Z" fill="white"/>
<path d="M137.861 12.5566C137.906 11.7542 138.073 11.1291 138.36 10.6842C138.645 10.2382 139.077 10.0157 139.653 10.0157C140.135 10.0157 140.49 10.2296 140.718 10.6604C140.943 11.0924 141.034 11.7243 140.989 12.5566H137.861ZM142.313 8.68784C141.96 8.36152 141.556 8.12626 141.102 7.98877C140.649 7.85066 140.181 7.781 139.697 7.781C138.261 7.781 137.141 8.25214 136.333 9.19321C135.524 10.1361 135.119 11.5923 135.119 13.5655C135.119 14.4693 135.206 15.2777 135.379 15.986C135.553 16.6942 135.822 17.298 136.185 17.7923C136.547 18.2897 137.011 18.6729 137.579 18.9314C138.144 19.199 138.82 19.3292 139.607 19.3292C140.316 19.3292 140.995 19.2247 141.646 19.0182C142.296 18.8159 142.808 18.5537 143.187 18.2323L142.349 16.4137C142.137 16.5726 141.83 16.7272 141.431 16.8727C141.031 17.0211 140.588 17.0933 140.105 17.0933C139.303 17.0933 138.722 16.8519 138.36 16.3685C137.996 15.8888 137.802 15.194 137.77 14.2884H143.278C143.354 13.8637 143.409 13.4683 143.445 13.1047C143.485 12.7399 143.502 12.3965 143.502 12.0751C143.502 11.2428 143.394 10.5516 143.175 10.0047C142.957 9.45597 142.668 9.01844 142.313 8.68784Z" fill="white"/>
<path d="M173.54 12.5566C173.585 11.7542 173.752 11.1291 174.04 10.6842C174.325 10.2382 174.757 10.0157 175.332 10.0157C175.814 10.0157 176.17 10.2296 176.396 10.6604C176.623 11.0924 176.713 11.7243 176.668 12.5566H173.54ZM177.992 8.68784C177.64 8.36152 177.236 8.12626 176.783 7.98877C176.328 7.85066 175.86 7.781 175.376 7.781C173.94 7.781 172.821 8.25214 172.012 9.19321C171.205 10.1361 170.798 11.5923 170.798 13.5655C170.798 14.4693 170.885 15.2777 171.059 15.986C171.232 16.6942 171.502 17.298 171.864 17.7923C172.226 18.2897 172.69 18.6729 173.259 18.9314C173.824 19.199 174.5 19.3292 175.287 19.3292C175.996 19.3292 176.675 19.2247 177.325 19.0182C177.976 18.8159 178.487 18.5537 178.866 18.2323L178.028 16.4137C177.816 16.5726 177.509 16.7272 177.11 16.8727C176.711 17.0211 176.268 17.0933 175.785 17.0933C174.982 17.0933 174.401 16.8519 174.04 16.3685C173.676 15.8888 173.482 15.194 173.45 14.2884H178.957C179.033 13.8637 179.089 13.4683 179.125 13.1047C179.164 12.7399 179.182 12.3965 179.182 12.0751C179.182 11.2428 179.074 10.5516 178.855 10.0047C178.636 9.45597 178.347 9.01844 177.992 8.68784Z" fill="white"/>
<path d="M150.427 16.873C150.282 16.9023 150.144 16.9164 150.007 16.9164C149.765 16.9164 149.593 16.8076 149.486 16.5895C149.38 16.367 149.328 16.0059 149.328 15.492V3.70545H146.63V16.8956C146.63 17.7731 146.82 18.3903 147.199 18.757C147.575 19.123 148.14 19.3063 148.896 19.3063C149.35 19.3063 149.795 19.2532 150.235 19.1523C150.673 19.0503 150.98 18.9397 151.163 18.823L150.913 16.7202C150.732 16.7924 150.568 16.8443 150.427 16.873Z" fill="white"/>
<path d="M89.757 15.8871C89.6363 16.2391 89.4581 16.5086 89.2243 16.698C88.991 16.8875 88.6687 16.9828 88.2623 16.9828C87.2334 16.9828 86.7209 15.881 86.7209 13.6744C86.7209 12.3881 86.8757 11.4837 87.1848 10.9575C87.4945 10.432 87.9293 10.168 88.4886 10.168C88.7591 10.168 88.9993 10.1906 89.2028 10.2346C89.4063 10.278 89.5914 10.3367 89.757 10.4094V15.8871ZM88.6927 7.84592C87.1658 7.84592 85.9928 8.32806 85.1693 9.29113C84.3452 10.256 83.9337 11.7538 83.9337 13.7832C83.9337 15.669 84.2308 17.0463 84.8287 17.9141C85.4253 18.7855 86.3202 19.2181 87.5134 19.2181C88.0727 19.2181 88.529 19.1424 88.8836 19C89.2401 18.8539 89.5226 18.6315 89.7336 18.3418H89.8032V18.9352C89.8032 19.7498 89.654 20.3608 89.3614 20.7642C89.0662 21.165 88.5347 21.3636 87.7637 21.3636C87.6676 21.3636 87.5855 21.3557 87.4945 21.349V23.6754C87.7068 23.6845 87.9318 23.6876 88.1713 23.6876C89.515 23.6876 90.5654 23.3093 91.3206 22.5583C92.0765 21.8067 92.4538 20.6334 92.4538 19.0415V8.48206C92.0619 8.30545 91.5399 8.15696 90.8908 8.0323C90.2405 7.90764 89.5087 7.84592 88.6927 7.84592Z" fill="white"/>
<path d="M55.3576 15.8871C55.2362 16.2391 55.0586 16.5086 54.8248 16.698C54.5922 16.8875 54.2693 16.9828 53.8616 16.9828C52.8333 16.9828 52.3208 15.881 52.3208 13.6744C52.3208 12.3881 52.475 11.4837 52.7859 10.9575C53.0944 10.432 53.5292 10.168 54.0885 10.168C54.3603 10.168 54.5985 10.1906 54.8027 10.2346C55.0062 10.278 55.192 10.3367 55.3576 10.4094V15.8871ZM54.2926 7.84592C52.7651 7.84592 51.5915 8.32806 50.768 9.29113C49.9451 10.256 49.533 11.7538 49.533 13.7832C49.533 15.669 49.8313 17.0463 50.4292 17.9141C51.0245 18.7855 51.9201 19.2181 53.114 19.2181C53.6726 19.2181 54.1296 19.1424 54.4848 19C54.8406 18.8539 55.1231 18.6315 55.3348 18.3418H55.4031V18.9352C55.4031 19.7498 55.2552 20.3608 54.9619 20.7642C54.6662 21.165 54.134 21.3636 53.363 21.3636C53.2675 21.3636 53.186 21.3557 53.0944 21.349V23.6754C53.3067 23.6845 53.5311 23.6876 53.7712 23.6876C55.1149 23.6876 56.1653 23.3093 56.9211 22.5583C57.6758 21.8067 58.055 20.6334 58.055 19.0415V8.48206C57.6619 8.30545 57.1405 8.15696 56.4901 8.0323C55.8411 7.90764 55.1079 7.84592 54.2926 7.84592Z" fill="white"/>
<path d="M157.026 17.4212C157.026 18.3354 156.26 19.076 155.315 19.076C154.37 19.076 153.603 18.3354 153.603 17.4212C153.603 16.5076 154.37 15.7664 155.315 15.7664C156.26 15.7664 157.026 16.5076 157.026 17.4212Z" fill="#009FE3"/>
<path d="M9.67033 6.02743L12.3677 5.21714V8.08677H14.5658V10.4101H12.3677V15.1869C12.3677 15.8145 12.4309 16.2612 12.5605 16.5227C12.6888 16.7867 12.9188 16.9163 13.2513 16.9163C13.4782 16.9163 13.6823 16.8955 13.8637 16.8515C14.0438 16.8075 14.2404 16.7427 14.4521 16.6547L14.7921 18.7355C14.4603 18.8974 14.0748 19.0306 13.6362 19.1394C13.1982 19.2494 12.7381 19.3062 12.2533 19.3062C11.3925 19.3062 10.7473 19.0654 10.3162 18.5827C9.88585 18.0999 9.67033 17.289 9.67033 16.15V6.02743ZM12.3974 0.954239C5.92634 0.954239 0.680077 6.02743 0.680077 12.2837C0.680077 18.5411 5.92634 23.6137 12.3974 23.6137C18.8692 23.6137 24.1154 18.5411 24.1154 12.2837C24.1154 6.02743 18.8692 0.954239 12.3974 0.954239Z" fill="#009FE3"/>
</svg>
